<svg width="19" height="20" viewBox="0 0 19 20" fill="none" xmlns="http://www.w3.org/2000/svg">
<path d="M1.16699 5.0013H17.8337M7.83366 9.16797V13.3346M11.167 9.16797V13.3346M2.83366 5.0013H16.167L14.8503 16.8513C14.8052 17.2591 14.6112 17.6359 14.3055 17.9096C13.9999 18.1833 13.604 18.3347 13.1937 18.3346H5.80699C5.39669 18.3347 5.00079 18.1833 4.69512 17.9096C4.38944 17.6359 4.19546 17.2591 4.15033 16.8513L2.83366 5.0013ZM5.62116 2.6238C5.75595 2.33794 5.96925 2.0963 6.23616 1.92706C6.50308 1.75782 6.81261 1.66797 7.12866 1.66797H11.872C12.1882 1.66781 12.4979 1.75759 12.765 1.92684C13.032 2.09609 13.2455 2.33781 13.3803 2.6238L14.5003 5.0013H4.50033L5.62116 2.6238V2.6238Z" stroke="#363636" stroke-width="2" stroke-linecap="round" stroke-linejoin="round"/>
</svg>
