<svg width="21" height="19" viewBox="0 0 21 19" fill="none" xmlns="http://www.w3.org/2000/svg">
<path d="M1.125 4.03156H12.1968C12.3584 4.48835 12.6577 4.88381 13.0534 5.16351C13.4491 5.44321 13.9217 5.59339 14.4062 5.59339C14.8908 5.59339 15.3634 5.44321 15.7591 5.16351C16.1548 4.88381 16.4541 4.48835 16.6157 4.03156H19.875C20.0822 4.03156 20.2809 3.94925 20.4274 3.80274C20.5739 3.65622 20.6562 3.45751 20.6562 3.25031C20.6562 3.04311 20.5739 2.8444 20.4274 2.69788C20.2809 2.55137 20.0822 2.46906 19.875 2.46906H16.6157C16.4541 2.01227 16.1548 1.61681 15.7591 1.33711C15.3634 1.05741 14.8908 0.907227 14.4062 0.907227C13.9217 0.907227 13.4491 1.05741 13.0534 1.33711C12.6577 1.61681 12.3584 2.01227 12.1968 2.46906H1.125C0.9178 2.46906 0.719086 2.55137 0.572573 2.69788C0.42606 2.8444 0.34375 3.04311 0.34375 3.25031C0.34375 3.45751 0.42606 3.65622 0.572573 3.80274C0.719086 3.94925 0.9178 4.03156 1.125 4.03156ZM19.875 14.9691H16.6157C16.4541 14.5123 16.1548 14.1168 15.7591 13.8371C15.3634 13.5574 14.8908 13.4072 14.4062 13.4072C13.9217 13.4072 13.4491 13.5574 13.0534 13.8371C12.6577 14.1168 12.3584 14.5123 12.1968 14.9691H1.125C0.9178 14.9691 0.719086 15.0514 0.572573 15.1979C0.42606 15.3444 0.34375 15.5431 0.34375 15.7503C0.34375 15.9575 0.42606 16.1562 0.572573 16.3027C0.719086 16.4492 0.9178 16.5316 1.125 16.5316H12.1968C12.3584 16.9884 12.6577 17.3838 13.0534 17.6635C13.4491 17.9432 13.9217 18.0934 14.4062 18.0934C14.8908 18.0934 15.3634 17.9432 15.7591 17.6635C16.1548 17.3838 16.4541 16.9884 16.6157 16.5316H19.875C20.0822 16.5316 20.2809 16.4492 20.4274 16.3027C20.5739 16.1562 20.6562 15.9575 20.6562 15.7503C20.6562 15.5431 20.5739 15.3444 20.4274 15.1979C20.2809 15.0514 20.0822 14.9691 19.875 14.9691ZM19.875 8.71906H8.80322C8.64157 8.26227 8.3423 7.86681 7.94663 7.58711C7.55095 7.30741 7.0783 7.15723 6.59375 7.15723C6.1092 7.15723 5.63655 7.30741 5.24087 7.58711C4.8452 7.86681 4.54593 8.26227 4.38428 8.71906H1.125C0.9178 8.71906 0.719086 8.80137 0.572573 8.94788C0.42606 9.0944 0.34375 9.29311 0.34375 9.50031C0.34375 9.70751 0.42606 9.90622 0.572573 10.0527C0.719086 10.1992 0.9178 10.2816 1.125 10.2816H4.38428C4.54593 10.7384 4.8452 11.1338 5.24087 11.4135C5.63655 11.6932 6.1092 11.8434 6.59375 11.8434C7.0783 11.8434 7.55095 11.6932 7.94663 11.4135C8.3423 11.1338 8.64157 10.7384 8.80322 10.2816H19.875C20.0822 10.2816 20.2809 10.1992 20.4274 10.0527C20.5739 9.90622 20.6562 9.70751 20.6562 9.50031C20.6562 9.29311 20.5739 9.0944 20.4274 8.94788C20.2809 8.80137 20.0822 8.71906 19.875 8.71906Z" fill="#1C1D1B"/>
</svg>
