<svg width="24" height="24" viewBox="0 0 24 24" fill="none" xmlns="http://www.w3.org/2000/svg">
<g clip-path="url(#clip0_702_2162)">
<path d="M15.5556 13.8C16.7009 13.8001 17.8019 14.2478 18.6291 15.0498C19.4563 15.8518 19.9459 16.9462 19.9956 18.1047L20 18.3V19.2C20.0001 19.6541 19.8308 20.0915 19.5258 20.4245C19.2208 20.7575 18.8028 20.9614 18.3556 20.9955L18.2222 21H5.77778C5.32927 21.0001 4.89727 20.8286 4.5684 20.5199C4.23953 20.2111 4.03808 19.7878 4.00444 19.335L4 19.2V18.3C4.00007 17.1404 4.44226 16.0256 5.23436 15.188C6.02647 14.3504 7.10733 13.8548 8.25156 13.8045L8.44444 13.8H15.5556ZM12 3C13.1787 3 14.3092 3.47411 15.1427 4.31802C15.9762 5.16193 16.4444 6.30653 16.4444 7.5C16.4444 8.69347 15.9762 9.83807 15.1427 10.682C14.3092 11.5259 13.1787 12 12 12C10.8213 12 9.6908 11.5259 8.8573 10.682C8.02381 9.83807 7.55556 8.69347 7.55556 7.5C7.55556 6.30653 8.02381 5.16193 8.8573 4.31802C9.6908 3.47411 10.8213 3 12 3Z" fill="#363636"/>
</g>
<defs>
<clipPath id="clip0_702_2162">
<rect width="24" height="24" fill="white"/>
</clipPath>
</defs>
</svg>
