<svg width="19" height="20" viewBox="0 0 19 20" fill="none" xmlns="http://www.w3.org/2000/svg">
<path d="M1.16797 5.0013H17.8346M7.83464 9.16797V13.3346M11.168 9.16797V13.3346M2.83464 5.0013H16.168L14.8513 16.8513C14.8062 17.2591 14.6122 17.6359 14.3065 17.9096C14.0008 18.1833 13.6049 18.3347 13.1946 18.3346H5.80797C5.39767 18.3347 5.00177 18.1833 4.69609 17.9096C4.39041 17.6359 4.19644 17.2591 4.1513 16.8513L2.83464 5.0013ZM5.62214 2.6238C5.75693 2.33794 5.97022 2.0963 6.23714 1.92706C6.50406 1.75782 6.81359 1.66797 7.12964 1.66797H11.873C12.1892 1.66781 12.4989 1.75759 12.7659 1.92684C13.033 2.09609 13.2464 2.33781 13.3813 2.6238L14.5013 5.0013H4.5013L5.62214 2.6238V2.6238Z" stroke="#B3B3B3" stroke-width="2" stroke-linecap="round" stroke-linejoin="round"/>
</svg>
