<svg width="53" height="65" viewBox="0 0 53 65" xmlns="http://www.w3.org/2000/svg">
<path d="M16.9056 52.6188L10.766 47.8079C4.46136 42.8681 0.63305 35.3755 0.300781 27.3259C0.300781 12.7232 12.0294 0.884766 26.4973 0.884766C40.965 0.884766 52.6939 12.7229 52.6939 27.3259C52.3617 35.3749 48.5329 42.8672 42.2287 47.8079L36.0885 52.6188C33.56 54.6004 29.1912 60.8685 27.3522 63.5904C26.9462 64.1912 26.0531 64.1888 25.6504 63.5857C23.8494 60.8881 19.5845 54.7178 16.9056 52.6188ZM7.71564 24.7541C8.0621 25.8022 8.23481 26.7072 8.23481 27.4691C8.23481 29.1201 7.51143 31.1845 6.06421 33.661C6.06421 33.9153 6.15869 34.0896 6.34716 34.185C6.53613 34.2804 6.72459 34.2645 6.91358 34.1373L14.0864 28.8982C14.3384 29.152 16.4145 30.3907 20.3154 32.6135V36.8047L24.9401 34.1374C26.5129 34.5184 28.0231 34.7092 29.4704 34.7092C32.4274 34.7092 35.3377 34.1533 38.2003 33.0423C41.0634 31.9306 43.234 30.8195 44.7127 29.708C46.191 28.5964 46.9307 27.8185 46.9307 27.374C46.9307 26.9931 46.3643 26.3424 45.2315 25.4215C44.0992 24.5007 42.4004 23.5162 40.1352 22.4682C37.8701 21.4202 35.542 20.7059 33.1508 20.3249L24.3737 15.8478V20.706C20.6613 21.7222 17.2324 23.405 14.0864 25.7549L6.91358 20.6107C6.66263 20.4205 6.45791 20.3728 6.29992 20.4682C6.14295 20.563 6.06421 20.7697 6.06421 21.087L6.63062 22.1351C7.00806 22.8334 7.36975 23.7066 7.7157 24.7546L7.71564 24.7541ZM36.3128 26.6595C35.9039 26.2468 35.6997 25.7546 35.6997 25.1828C35.6997 24.6111 35.9039 24.1189 36.3128 23.7062C36.7218 23.2934 37.2095 23.0873 37.7759 23.0873C38.3423 23.0873 38.83 23.2934 39.2389 23.7062C39.6478 24.1189 39.852 24.6111 39.852 25.1828C39.852 25.7546 39.6478 26.2468 39.2389 26.6595C38.83 27.0723 38.3423 27.2784 37.7759 27.2784C37.2095 27.2784 36.7218 27.0723 36.3128 26.6595Z" fill="#DB3F5A"/>
</svg>
