<svg width="19" height="15" viewBox="0 0 19 15" fill="none" xmlns="http://www.w3.org/2000/svg">
<path d="M19 3.988V12.375C19 13.825 17.825 15 16.375 15H2.625C1.92881 15 1.26113 14.7234 0.768845 14.2312C0.276562 13.7389 0 13.0712 0 12.375L0 3.988L9.199 9.048C9.3865 9.151 9.614 9.151 9.801 9.048L19 3.9875V3.988ZM16.375 1.12891e-08C17.0602 6.36777e-05 17.7183 0.268076 18.2086 0.746788C18.6989 1.2255 18.9826 1.87696 18.999 2.562L9.5 7.787L0.000999928 2.5615L0.00200009 2.5165C0.0300014 1.83963 0.318603 1.19979 0.807455 0.730788C1.29631 0.261786 1.94755 -6.27765e-05 2.625 1.12891e-08L16.375 1.12891e-08Z" fill="#363636"/>
</svg>
