<svg width="18" height="18" viewBox="0 0 18 18" fill="none" xmlns="http://www.w3.org/2000/svg">
<g clip-path="url(#clip0_705_2312)">
<g clip-path="url(#clip1_705_2312)">
<path d="M7.41658 4.46488C7.88915 3.99164 7.87028 3.29128 7.41658 2.83693L4.92132 0.357055C4.50545 -0.0593954 3.84378 -0.0972883 3.39021 0.281394C3.06888 0.546402 2.70971 0.849316 2.40723 1.13319L6.47136 5.20305C6.84952 4.93818 7.22755 4.65416 7.41664 4.46493L7.41658 4.46488Z" fill="white"/>
<path d="M12.0291 12.6995C11.4431 13.5324 10.2334 13.6271 9.51501 12.9077L5.11062 8.49711C4.39228 7.77775 4.48683 6.56626 5.31856 5.97948C5.31856 5.97948 5.39412 5.9227 5.5265 5.84691L1.59469 1.89062C-0.541381 4.16214 -0.503541 7.72094 1.70808 9.9357L8.05948 16.296C9.19372 17.4319 10.6681 17.9808 12.1425 17.9808C13.5602 17.9808 14.978 17.4507 16.0932 16.4096L12.1614 12.4912C12.0859 12.6238 12.0292 12.6994 12.0292 12.6994L12.0291 12.6995Z" fill="white"/>
<path d="M17.6433 13.096L15.148 10.5973C14.6943 10.1429 14.0138 10.1051 13.5224 10.5973C13.3333 10.7866 13.0498 11.1652 12.7852 11.5437L16.8682 15.6325C17.1517 15.3296 17.4542 14.9699 17.7188 14.6482C18.0968 14.1939 18.059 13.5124 17.6432 13.096L17.6433 13.096Z" fill="white"/>
</g>
</g>
<defs>
<clipPath id="clip0_705_2312">
<rect width="18" height="18" fill="whitez"/>
</clipPath>
<clipPath id="clip1_705_2312">
<rect width="18" height="18" fill="white"/>
</clipPath>
</defs>
</svg>
