<?xml version="1.0" encoding="utf-8"?><svg viewBox="0 0 129 129" xmlns="http://www.w3.org/2000/svg" xmlns:xlink="http://www.w3.org/1999/xlink"><style>:root>svg{display:none}:root>svg:target{display:block}</style><svg viewBox="0 0 20 7" id="back" xmlns="http://www.w3.org/2000/svg"><path d="M3.5 0L0 3.5 3.5 7l.707-.707L1.914 4H20V3H1.914L4.207.707 3.5 0z"/></svg><svg viewBox="0 0 50 50" id="bottom" xmlns="http://www.w3.org/2000/svg"><path d="M48.707 13.853l-1.414-1.413L25 34.732 2.707 12.44l-1.414 1.413L25 37.56z"/></svg><svg viewBox="0 0 64 64" id="clear" xmlns="http://www.w3.org/2000/svg"><path d="M28 7c-2.757 0-5 2.243-5 5v3H13a2 2 0 000 4h2.11l1.683 30.332A6.003 6.003 0 0022.783 55h18.434a6.004 6.004 0 005.99-5.668L48.891 19H51a2 2 0 000-4H41v-3c0-2.757-2.243-5-5-5h-8zm0 4h8c.552 0 1 .449 1 1v3H27v-3c0-.551.448-1 1-1zm-8.887 8h25.774l-1.674 30.11A2 2 0 0141.217 51H22.783a2 2 0 01-1.996-1.889L19.113 19zM32 23.25A1.75 1.75 0 0030.25 25v20a1.75 1.75 0 103.5 0V25A1.75 1.75 0 0032 23.25zm-7.357.002a1.75 1.75 0 00-1.688 1.809l.697 20.085a1.75 1.75 0 001.748 1.69h.063a1.751 1.751 0 001.687-1.81l-.697-20.087a1.76 1.76 0 00-1.81-1.687zm14.712 0a1.753 1.753 0 00-1.808 1.687l-.697 20.086a1.75 1.75 0 001.687 1.81c.021.002.042 0 .063 0a1.75 1.75 0 001.748-1.689l.697-20.085a1.75 1.75 0 00-1.69-1.809z"/></svg><svg viewBox="0 0 30 30" id="close" xmlns="http://www.w3.org/2000/svg"><g clip-path="url(#da)"><path d="M30 0l-1.875.019L15 13.125 1.875.019 0 0v1.875L13.125 15 0 28.125V30h1.875L15 16.875 28.125 30H30v-1.875L16.875 15 30 1.875V0z"/></g><defs><clipPath id="da"><path d="M0 0h30v30H0z"/></clipPath></defs></svg><svg viewBox="0 0 21 19" id="filter" xmlns="http://www.w3.org/2000/svg"><path d="M1.125 4.032h11.072a2.343 2.343 0 004.419 0h3.259a.781.781 0 100-1.563h-3.26a2.343 2.343 0 00-4.418 0H1.125a.781.781 0 000 1.563zm18.75 10.937h-3.26a2.343 2.343 0 00-4.418 0H1.125a.781.781 0 100 1.563h11.072a2.343 2.343 0 004.419 0h3.259a.781.781 0 000-1.563zm0-6.25H8.803a2.344 2.344 0 00-4.419 0H1.125a.781.781 0 000 1.563h3.26a2.344 2.344 0 004.418 0h11.072a.781.781 0 000-1.563z"/></svg><svg viewBox="0 0 53 65" id="icon-fish" xmlns="http://www.w3.org/2000/svg"><path d="M16.906 52.619l-6.14-4.811C4.461 42.868.633 35.376.301 27.326.3 12.723 12.029.885 26.497.885c14.468 0 26.197 11.838 26.197 26.44-.332 8.05-4.161 15.542-10.465 20.483l-6.14 4.81c-2.529 1.982-6.898 8.25-8.737 10.972a1.028 1.028 0 01-1.702-.004c-1.8-2.698-6.066-8.868-8.744-10.967zm-9.19-27.865c.346 1.048.519 1.953.519 2.715 0 1.651-.724 3.715-2.17 6.192 0 .254.094.429.282.524.19.095.378.08.567-.048l7.172-5.239c.252.254 2.329 1.493 6.23 3.716v4.19l4.624-2.667c1.573.381 3.083.572 4.53.572 2.957 0 5.868-.556 8.73-1.667 2.863-1.111 5.034-2.223 6.513-3.334 1.478-1.112 2.218-1.89 2.218-2.334 0-.38-.567-1.032-1.7-1.952-1.132-.921-2.83-1.906-5.096-2.954a26.497 26.497 0 00-6.984-2.143l-8.777-4.477v4.858c-3.713 1.016-7.142 2.699-10.288 5.049L6.914 20.61c-.251-.19-.456-.238-.614-.143-.157.095-.236.302-.236.619l.567 1.048c.377.698.739 1.572 1.085 2.62zm28.597 1.905a2.025 2.025 0 01-.613-1.476c0-.572.204-1.064.613-1.477a1.988 1.988 0 011.463-.619c.566 0 1.054.206 1.463.62.409.412.613.904.613 1.476s-.204 1.064-.613 1.477a1.988 1.988 0 01-1.463.618 1.988 1.988 0 01-1.463-.618z"/></svg><svg viewBox="0 0 19 15" id="mail" xmlns="http://www.w3.org/2000/svg"><path d="M19 3.988v8.387A2.625 2.625 0 0116.375 15H2.625A2.625 2.625 0 010 12.375V3.988l9.199 5.06a.625.625 0 00.602 0L19 3.988zM16.375 0a2.625 2.625 0 012.624 2.562L9.5 7.787.001 2.562l.001-.045A2.625 2.625 0 012.625 0h13.75z"/></svg><svg viewBox="0 0 18 18" id="phone" xmlns="http://www.w3.org/2000/svg"><g clip-path="url(#ha)"><g clip-path="url(#hb)"><path d="M7.417 4.465a1.127 1.127 0 000-1.628L4.92.357A1.133 1.133 0 003.39.281c-.322.265-.681.568-.984.852l4.064 4.07c.379-.265.757-.549.946-.738zM12.03 12.7a1.656 1.656 0 01-2.515.208l-4.404-4.41c-.719-.72-.624-1.932.208-2.519 0 0 .075-.056.208-.132L1.595 1.89a5.778 5.778 0 00.113 8.045l6.351 6.36a5.731 5.731 0 004.084 1.685c1.417 0 2.835-.53 3.95-1.571l-3.932-3.919a2.17 2.17 0 01-.132.208zm5.613.396l-2.495-2.499c-.454-.454-1.134-.492-1.626 0-.189.19-.472.568-.737.947l4.083 4.088c.284-.302.586-.662.85-.984a1.162 1.162 0 00-.075-1.552z"/></g></g><defs><clipPath id="ha"><path d="M0 0h18v18H0z"/></clipPath><clipPath id="hb"><path d="M0 0h18v18H0z"/></clipPath></defs></svg><svg viewBox="0 0 129 129" id="right" xmlns="http://www.w3.org/2000/svg"><path d="M40.4 121.3c-.8.8-1.8 1.2-2.9 1.2s-2.1-.4-2.9-1.2c-1.6-1.6-1.6-4.2 0-5.8l51-51-51-51c-1.6-1.6-1.6-4.2 0-5.8 1.6-1.6 4.2-1.6 5.8 0l53.9 53.9c1.6 1.6 1.6 4.2 0 5.8l-53.9 53.9z"/></svg><svg viewBox="0 -19.04 75.803 75.803" id="top" xmlns="http://www.w3.org/2000/svg"><g data-name="Group 66"><path data-name="Path 58" d="M75.803 36.23a1.5 1.5 0 01-2.561 1.061L39.682 3.734a2.53 2.53 0 00-3.564 0L2.56 37.291A1.5 1.5 0 01.439 35.17L33.996 1.613a5.531 5.531 0 017.808 0L75.363 35.17a1.494 1.494 0 01.44 1.06z"/></g></svg><svg viewBox="0 0 16 16" id="user" xmlns="http://www.w3.org/2000/svg"><path d="M10.828 1.172a4 4 0 11-5.656 5.656 4 4 0 015.656-5.656m3.308 9.711c-3.647-2.464-8.625-2.464-12.272 0A1.983 1.983 0 001 12.534V16h14v-3.466c0-.669-.323-1.286-.864-1.651z"/></svg></svg>