<?xml version="1.0" encoding="utf-8"?><svg viewBox="0 0 129 129" xmlns="http://www.w3.org/2000/svg" xmlns:xlink="http://www.w3.org/1999/xlink"><style>:root>svg{display:none}:root>svg:target{display:block}</style><svg viewBox="0 0 53 65" id="icon-fish" xmlns="http://www.w3.org/2000/svg"><path d="M16.906 52.619l-6.14-4.811C4.461 42.868.633 35.376.301 27.326.3 12.723 12.029.885 26.497.885c14.468 0 26.197 11.838 26.197 26.44-.332 8.05-4.161 15.542-10.465 20.483l-6.14 4.81c-2.529 1.982-6.898 8.25-8.737 10.972a1.028 1.028 0 01-1.702-.004c-1.8-2.698-6.066-8.868-8.744-10.967zm-9.19-27.865c.346 1.048.519 1.953.519 2.715 0 1.651-.724 3.715-2.17 6.192 0 .254.094.429.282.524.19.095.378.08.567-.048l7.172-5.239c.252.254 2.329 1.493 6.23 3.716v4.19l4.624-2.667c1.573.381 3.083.572 4.53.572 2.957 0 5.868-.556 8.73-1.667 2.863-1.111 5.034-2.223 6.513-3.334 1.478-1.112 2.218-1.89 2.218-2.334 0-.38-.567-1.032-1.7-1.952-1.132-.921-2.83-1.906-5.096-2.954a26.497 26.497 0 00-6.984-2.143l-8.777-4.477v4.858c-3.713 1.016-7.142 2.699-10.288 5.049L6.914 20.61c-.251-.19-.456-.238-.614-.143-.157.095-.236.302-.236.619l.567 1.048c.377.698.739 1.572 1.085 2.62zm28.597 1.905a2.025 2.025 0 01-.613-1.476c0-.572.204-1.064.613-1.477a1.988 1.988 0 011.463-.619c.566 0 1.054.206 1.463.62.409.412.613.904.613 1.476s-.204 1.064-.613 1.477a1.988 1.988 0 01-1.463.618 1.988 1.988 0 01-1.463-.618z"/></svg><svg viewBox="0 0 19 15" id="mail" xmlns="http://www.w3.org/2000/svg"><path d="M19 3.988v8.387A2.625 2.625 0 0116.375 15H2.625A2.625 2.625 0 010 12.375V3.988l9.199 5.06a.625.625 0 00.602 0L19 3.988zM16.375 0a2.625 2.625 0 012.624 2.562L9.5 7.787.001 2.562l.001-.045A2.625 2.625 0 012.625 0h13.75z"/></svg><svg viewBox="0 0 18 18" id="phone" xmlns="http://www.w3.org/2000/svg"><g clip-path="url(#ca)"><g clip-path="url(#cb)"><path d="M7.417 4.465a1.127 1.127 0 000-1.628L4.92.357A1.133 1.133 0 003.39.281c-.322.265-.681.568-.984.852l4.064 4.07c.379-.265.757-.549.946-.738zM12.03 12.7a1.656 1.656 0 01-2.515.208l-4.404-4.41c-.719-.72-.624-1.932.208-2.519 0 0 .075-.056.208-.132L1.595 1.89a5.778 5.778 0 00.113 8.045l6.351 6.36a5.731 5.731 0 004.084 1.685c1.417 0 2.835-.53 3.95-1.571l-3.932-3.919a2.17 2.17 0 01-.132.208zm5.613.396l-2.495-2.499c-.454-.454-1.134-.492-1.626 0-.189.19-.472.568-.737.947l4.083 4.088c.284-.302.586-.662.85-.984a1.162 1.162 0 00-.075-1.552z"/></g></g><defs><clipPath id="ca"><path d="M0 0h18v18H0z"/></clipPath><clipPath id="cb"><path d="M0 0h18v18H0z"/></clipPath></defs></svg><svg viewBox="0 0 129 129" id="right" xmlns="http://www.w3.org/2000/svg"><path d="M40.4 121.3c-.8.8-1.8 1.2-2.9 1.2s-2.1-.4-2.9-1.2c-1.6-1.6-1.6-4.2 0-5.8l51-51-51-51c-1.6-1.6-1.6-4.2 0-5.8 1.6-1.6 4.2-1.6 5.8 0l53.9 53.9c1.6 1.6 1.6 4.2 0 5.8l-53.9 53.9z"/></svg><svg viewBox="0 0 24 24" id="user" xmlns="http://www.w3.org/2000/svg"><g clip-path="url(#ea)"><path d="M15.556 13.8c1.145 0 2.246.448 3.073 1.25a4.525 4.525 0 011.367 3.055L20 18.3v.9c0 .454-.17.892-.474 1.224a1.77 1.77 0 01-1.17.572l-.134.004H5.778c-.449 0-.88-.171-1.21-.48a1.81 1.81 0 01-.564-1.185L4 19.2v-.9a4.53 4.53 0 011.234-3.112 4.42 4.42 0 013.018-1.383l.192-.005h7.112zM12 3c1.179 0 2.31.474 3.143 1.318A4.529 4.529 0 0116.444 7.5a4.529 4.529 0 01-1.301 3.182A4.417 4.417 0 0112 12a4.417 4.417 0 01-3.143-1.318A4.529 4.529 0 017.556 7.5c0-1.193.468-2.338 1.301-3.182A4.417 4.417 0 0112 3z"/></g><defs><clipPath id="ea"><path d="M0 0h24v24H0z"/></clipPath></defs></svg></svg>